<svg width="1262" height="206" viewBox="0 0 1262 206" fill="none" xmlns="http://www.w3.org/2000/svg">
<path d="M119.59 33.31H0.119995V172.7H119.59V33.31Z" fill="#0A489B"/>
<path d="M59.85 68.15L20.03 103L59.85 137.85L99.68 103L59.85 68.15Z" fill="white"/>
<path d="M258.3 71.65H226.12V135.32H243.56V113.1H259.96C275.37 113.1 284.23 105.5 284.23 92.36C284.23 81.25 278.58 71.66 258.3 71.66V71.65ZM250.54 107.54C244.92 107.54 243.56 107.03 243.56 107.03V76.85H251.7C262.98 76.85 267.39 83.75 267.39 92.87C267.39 101.99 261.44 107.53 250.53 107.53L250.54 107.54Z" fill="black"/>
<path d="M350.46 135.31L325.22 98.55L345.73 71.65H336.59L320.89 92.25L306.74 71.65H288.07L311.07 105.13L288.07 135.31H297.21L315.4 111.44L331.8 135.31H350.46Z" fill="black"/>
<path d="M187.24 71.65H177.22L150.13 135.32H157.39L165.37 116.38H188.3L196.18 135.32H214.4L187.26 71.65H187.24ZM167.95 110.23L176.91 88.97L185.73 110.23H167.95Z" fill="black"/>
<path d="M372.2 135.33V71.56H376.94V135.33H372.2Z" fill="black"/>
<path d="M430.87 135.33V107.73C430.87 102.93 429.59 99.09 427.04 96.21C424.49 93.33 420.85 91.88 416.11 91.88C413.8 91.88 411.68 92.29 409.73 93.11C407.79 93.93 406.09 95.07 404.63 96.53C403.17 97.99 402.03 99.73 401.21 101.77C400.39 103.81 399.98 106.04 399.98 108.47V135.34H395.52V88.88H399.98V97.53C401.56 94.8 403.68 92.49 406.36 90.61C409.03 88.73 412.49 87.79 416.75 87.79C419.67 87.79 422.28 88.26 424.58 89.2C426.89 90.14 428.85 91.46 430.46 93.16C432.07 94.86 433.28 96.88 434.1 99.22C434.92 101.56 435.33 104.13 435.33 106.92V135.34H430.87V135.33Z" fill="black"/>
<path d="M469.49 135.7H465.66L444.8 88.88H449.99L467.57 130.33L485.33 88.88H490.34L469.48 135.7H469.49Z" fill="black"/>
<path d="M503.3 121.63C504.4 123.87 505.77 125.77 507.41 127.34C509.05 128.91 510.93 130.11 513.03 130.92C515.13 131.74 517.34 132.14 519.65 132.14C523.3 132.14 526.39 131.44 528.92 130.04C531.45 128.64 533.69 126.91 535.63 124.85L538.73 127.58C536.36 130.13 533.67 132.24 530.65 133.91C527.64 135.58 523.91 136.42 519.47 136.42C516.43 136.42 513.52 135.84 510.75 134.69C507.98 133.54 505.54 131.9 503.44 129.77C501.34 127.64 499.68 125.09 498.46 122.12C497.24 119.15 496.63 115.83 496.63 112.19V112.01C496.63 108.67 497.19 105.53 498.31 102.58C499.43 99.63 500.98 97.07 502.96 94.88C504.93 92.69 507.26 90.96 509.93 89.69C512.6 88.41 515.52 87.78 518.68 87.78C521.84 87.78 524.9 88.4 527.52 89.65C530.13 90.9 532.36 92.61 534.22 94.8C536.07 96.99 537.5 99.55 538.5 102.5C539.5 105.45 540 108.65 540 112.11V113.11C540 113.29 539.97 113.57 539.91 113.93H501.37C501.55 116.83 502.19 119.4 503.29 121.63H503.3ZM535.27 109.92C535.09 107.55 534.61 105.29 533.85 103.13C533.09 100.97 532.02 99.06 530.65 97.39C529.28 95.72 527.59 94.38 525.58 93.38C523.57 92.38 521.23 91.88 518.55 91.88C516.24 91.88 514.08 92.34 512.07 93.25C510.06 94.16 508.31 95.42 506.82 97.03C505.33 98.64 504.09 100.55 503.12 102.77C502.15 104.99 501.57 107.37 501.38 109.92H535.27Z" fill="black"/>
<path d="M582.87 128.29C582.05 129.96 580.91 131.38 579.45 132.56C577.99 133.74 576.29 134.65 574.35 135.29C572.4 135.92 570.31 136.24 568.06 136.24C564.66 136.24 561.26 135.6 557.86 134.33C554.46 133.06 551.51 131.42 549.02 129.4L551.66 125.85C554.21 127.79 556.88 129.3 559.68 130.36C562.47 131.42 565.36 131.95 568.33 131.95C571.49 131.95 574.14 131.16 576.3 129.59C578.46 128.01 579.53 125.86 579.53 123.13V122.95C579.53 121.62 579.2 120.47 578.53 119.5C577.86 118.53 576.95 117.68 575.8 116.95C574.65 116.22 573.34 115.62 571.88 115.13C570.42 114.65 568.87 114.16 567.23 113.68C565.35 113.13 563.45 112.56 561.54 111.95C559.63 111.34 557.91 110.57 556.39 109.63C554.87 108.69 553.64 107.52 552.7 106.13C551.76 104.74 551.29 103.01 551.29 100.95V100.77C551.29 98.89 551.67 97.18 552.43 95.63C553.19 94.08 554.24 92.74 555.57 91.58C556.9 90.43 558.52 89.53 560.4 88.9C562.28 88.26 564.35 87.94 566.59 87.94C569.38 87.94 572.25 88.41 575.2 89.34C578.15 90.27 580.77 91.54 583.08 93.14L580.71 96.87C578.58 95.47 576.29 94.35 573.83 93.5C571.37 92.65 568.9 92.22 566.41 92.22C563.19 92.22 560.62 92.99 558.71 94.54C556.8 96.09 555.84 98.01 555.84 100.31V100.49C555.84 101.76 556.2 102.87 556.93 103.81C557.66 104.75 558.62 105.55 559.8 106.22C560.98 106.89 562.36 107.48 563.94 107.99C565.52 108.51 567.13 109.01 568.77 109.49C570.65 110.04 572.51 110.63 574.33 111.26C576.15 111.9 577.79 112.71 579.25 113.71C580.71 114.71 581.88 115.91 582.76 117.3C583.64 118.69 584.08 120.42 584.08 122.48V122.66C584.08 124.72 583.67 126.58 582.85 128.25L582.87 128.29Z" fill="black"/>
<path d="M616.85 135.74C615.67 136.01 614.35 136.15 612.89 136.15C611.07 136.15 609.37 135.91 607.79 135.42C606.21 134.93 604.83 134.16 603.64 133.1C602.46 132.04 601.53 130.7 600.86 129.09C600.19 127.48 599.86 125.58 599.86 123.4V92.97H593.12V88.87H599.86V74.02H604.32V88.87H620.63V92.97H604.32V122.87C604.32 126.2 605.19 128.54 606.92 129.87C608.65 131.2 610.88 131.87 613.62 131.87C614.77 131.87 615.87 131.76 616.9 131.53C617.93 131.3 619.12 130.9 620.45 130.33V134.52C619.23 135.07 618.04 135.48 616.85 135.75V135.74Z" fill="black"/>
<path d="M938.86 82.4C919.16 82.4 910.12 90.69 910.12 109.63V112.54C910.12 130.52 917.98 139.24 936.49 139.24C942.41 139.24 948.33 138.16 952.53 134.83V136.98C952.53 147.1 948.12 150.43 937.79 150.43H931.6C928.06 150.49 926.46 151.12 924.32 154.61H924.31C906.56 182.69 875.75 199.86 842.17 199.86C788.59 199.86 745 156.27 745 102.69C745 49.11 788.59 5.51997 842.17 5.51997C879.81 5.51997 914.04 27.31 930.06 61.23H934.53C918.21 24.91 882.02 1.46997 842.18 1.46997C786.37 1.46997 740.96 46.87 740.96 102.68C740.96 158.49 786.37 203.9 842.18 203.9C875 203.9 905.29 188.16 924.18 162.05H938.66C957.71 162.05 967.51 154.84 967.51 136.43V108.66C967.51 90.36 958.15 82.4 938.88 82.4M952.66 114.37C952.66 124.49 949.11 127.61 938.88 127.61C927.36 127.61 925.1 123.63 925.1 111.89V110.06C925.1 98.44 927.15 94.24 938.88 94.24C950.61 94.24 952.66 98.33 952.66 110.17V114.37ZM799.92 62.06V114.91C799.92 134.5 808.96 142.68 828.66 142.68C848.36 142.68 858.16 134.71 858.16 115.02V109.96C858.16 91.45 849.76 82.4 831.46 82.4C825.65 82.4 819.3 83.58 814.99 86.92V59.69L799.92 62.06ZM829.2 94.24C839.53 94.24 843.19 98.33 843.19 110.49V115.01C843.19 126.85 839.53 130.94 828.98 130.94C818.43 130.94 814.77 126.85 814.77 114.9V108.76C814.77 97.89 818.43 94.23 829.19 94.23M902.71 96.28L905.19 84.22H883.88V67.75L868.92 70.01V119.2C868.92 136.21 875.6 141.27 893.78 141.27H901.75L904.23 129.32H894.86C886.57 129.32 883.88 127.27 883.88 118.23V96.27H902.72L902.71 96.28Z" fill="black"/>
<path d="M1009.03 86.6499C994.31 86.6499 987.45 93.9199 987.45 109.54V152.01H992.09V130.2C995.45 134.57 1001.71 137.12 1009.29 137.12C1023.95 137.12 1030.48 130.06 1030.48 114.23V109.4C1030.48 93.6599 1023.86 86.64 1009.03 86.64M1025.71 114.23C1025.71 127.62 1021.26 132.6 1009.3 132.6C997.97 132.6 992.23 127.08 992.23 116.18V109.52C992.23 96.47 997.1 91.1499 1009.04 91.1499C1020.98 91.1499 1025.72 96.26 1025.72 109.39V114.22L1025.71 114.23ZM1225.92 87.42H1213.33L1212.29 91.9299H1225.92C1238.39 91.9299 1242.6 95.25 1242.6 105.08V109.84C1239.51 106.75 1234.04 105.18 1226.31 105.18C1213.98 105.18 1207.99 110.4 1207.99 121.15V121.93C1207.99 132 1213.89 137.11 1225.53 137.11H1228.66C1240.99 137.11 1247.24 132 1247.24 121.93V105.09C1247.24 92.54 1241.06 87.4299 1225.92 87.4299M1242.6 122.59C1242.6 129.8 1238.66 132.61 1228.53 132.61H1226.57C1216.8 132.61 1212.64 129.42 1212.64 121.94V121.16C1212.64 113.04 1216.61 109.58 1225.92 109.58H1226.7C1237.84 109.58 1242.59 112.93 1242.59 120.77V122.6L1242.6 122.59ZM1256.83 137.12H1261.48V68.7599H1256.83V137.12ZM1152.2 91.94L1153.24 87.4299H1132.47V74.53L1127.7 75.38V119.59C1127.7 132.18 1132.42 136.86 1145.1 136.86H1151.96L1152.83 132.35H1145.1C1135.54 132.35 1132.47 129.31 1132.47 119.85V91.94H1152.2ZM1195.2 117.5C1195.2 129.14 1191.56 132.87 1180.22 132.87C1168.88 132.87 1165.5 128.99 1165.5 117.5V87.4299H1160.73V117.5C1160.73 131.81 1166.19 137.38 1180.22 137.38C1194.25 137.38 1199.84 131.62 1199.84 117.5V87.4299H1195.2V117.5ZM1055.78 87.4299H1043.19L1042.15 91.94H1055.78C1068.15 91.94 1072.33 95.26 1072.33 105.09V109.85C1069.24 106.76 1063.77 105.19 1056.04 105.19C1043.72 105.19 1037.72 110.41 1037.72 121.16V121.94C1037.72 132.01 1043.66 137.12 1055.38 137.12H1058.52C1070.76 137.12 1076.97 132.01 1076.97 121.94V105.1C1076.97 92.55 1070.83 87.44 1055.78 87.44M1072.33 122.6C1072.33 129.9 1068.55 132.62 1058.4 132.62H1056.44C1046.58 132.62 1042.37 129.43 1042.37 121.95V121.17C1042.37 113.05 1046.34 109.59 1055.65 109.59H1056.43C1067.57 109.59 1072.32 112.94 1072.32 120.78V122.61L1072.33 122.6ZM1090.16 114.24V110.06C1090.16 96.69 1094.73 91.95 1107.62 91.95H1118.51L1119.55 87.44H1107.62C1092.24 87.44 1085.39 94.42 1085.39 110.07V114.25C1085.39 129.9 1092.25 136.88 1107.62 136.88H1118.64L1119.68 132.37H1107.62C1095.05 132.37 1090.16 127.29 1090.16 114.26" fill="black"/>
<path d="M1006.72 40.81H993.65L990.17 50.15H987.71L999.01 20.99H1001.55L1012.81 50.15H1010.23L1006.71 40.81H1006.72ZM994.43 38.64H1005.9L1000.17 23.53L994.44 38.64H994.43Z" fill="black"/>
<path d="M1033.63 40.81H1020.56L1017.08 50.15H1014.62L1025.92 20.99H1028.46L1039.72 50.15H1037.14L1033.62 40.81H1033.63ZM1021.34 38.64H1032.81L1027.08 23.53L1021.35 38.64H1021.34Z" fill="black"/>
<path d="M1046.37 20.98V50.14H1043.95V20.98H1046.37Z" fill="black"/>
<path d="M1074.71 48.01C1075.86 48.01 1076.95 48.01 1077.99 47.99C1079.03 47.98 1080.04 47.96 1081.02 47.93L1080.53 50.14C1079.68 50.17 1078.76 50.19 1077.77 50.2C1076.77 50.21 1075.75 50.22 1074.72 50.22C1072.37 50.22 1070.41 50.01 1068.84 49.59C1067.27 49.17 1066.01 48.47 1065.07 47.5C1064.13 46.53 1063.45 45.27 1063.04 43.73C1062.63 42.19 1062.43 40.28 1062.43 38.02V33.06C1062.43 30.79 1062.64 28.89 1063.04 27.35C1063.45 25.81 1064.13 24.56 1065.09 23.6C1066.05 22.64 1067.31 21.96 1068.88 21.53C1070.45 21.1 1072.41 20.9 1074.76 20.9H1077.48C1077.96 20.9 1078.48 20.9 1079.06 20.92C1079.64 20.94 1080.3 20.95 1081.07 20.98L1080.58 23.19C1079.41 23.14 1078.37 23.11 1077.47 23.11H1074.73C1072.71 23.11 1071.06 23.27 1069.77 23.6C1068.49 23.93 1067.49 24.47 1066.78 25.24C1066.07 26.01 1065.58 27.02 1065.33 28.29C1065.07 29.56 1064.94 31.15 1064.94 33.06V38.02C1064.94 39.99 1065.09 41.62 1065.39 42.91C1065.69 44.21 1066.22 45.23 1066.97 45.98C1067.72 46.73 1068.72 47.26 1069.98 47.56C1071.24 47.86 1072.82 48.01 1074.73 48.01H1074.71Z" fill="black"/>
<path d="M1094.08 28.4399C1095.69 28.4399 1097.08 28.5999 1098.26 28.9099C1099.43 29.2199 1100.4 29.7499 1101.15 30.4899C1101.9 31.2299 1102.45 32.2199 1102.81 33.4599C1103.16 34.6999 1103.34 36.2399 1103.34 38.0699V41.1799C1103.34 43.0099 1103.16 44.5399 1102.81 45.7699C1102.45 46.9999 1101.9 47.9899 1101.15 48.7399C1100.4 49.4899 1099.44 50.0199 1098.26 50.3399C1097.09 50.6499 1095.69 50.8099 1094.08 50.8099C1092.47 50.8099 1091.08 50.6499 1089.9 50.3399C1088.73 50.0299 1087.76 49.4899 1087.01 48.7399C1086.26 47.9899 1085.71 46.9999 1085.35 45.7699C1084.99 44.5399 1084.82 43.0099 1084.82 41.1799V38.0699C1084.82 36.2399 1085 34.7099 1085.35 33.4799C1085.7 32.2499 1086.26 31.2599 1087.01 30.5099C1087.76 29.7599 1088.72 29.2299 1089.9 28.9099C1091.07 28.5999 1092.47 28.4399 1094.08 28.4399ZM1100.92 38.0699C1100.92 36.5699 1100.8 35.3299 1100.55 34.3399C1100.31 33.3599 1099.91 32.5899 1099.36 32.0299C1098.81 31.4699 1098.1 31.0799 1097.23 30.8599C1096.36 30.6399 1095.31 30.5299 1094.08 30.5299C1092.85 30.5299 1091.77 30.6299 1090.91 30.8399C1090.05 31.0399 1089.35 31.4299 1088.8 31.9899C1088.25 32.5499 1087.86 33.3099 1087.61 34.2799C1087.36 35.2499 1087.24 36.5099 1087.24 38.0699V41.1799C1087.24 42.7099 1087.36 43.9599 1087.61 44.9299C1087.86 45.8999 1088.25 46.6599 1088.8 47.2199C1089.35 47.7799 1090.05 48.1699 1090.91 48.3899C1091.77 48.6099 1092.83 48.7199 1094.08 48.7199C1095.33 48.7199 1096.39 48.6199 1097.25 48.4099C1098.11 48.1999 1098.81 47.8199 1099.36 47.2599C1099.91 46.6999 1100.3 45.9399 1100.55 44.9699C1100.8 43.9999 1100.92 42.7399 1100.92 41.1799V38.0699Z" fill="black"/>
<path d="M1108.42 50.1399V36.0899C1108.42 34.9199 1108.54 33.8499 1108.79 32.8999C1109.04 31.9399 1109.49 31.1399 1110.14 30.4799C1110.8 29.8199 1111.69 29.3199 1112.82 28.9599C1113.95 28.6099 1115.41 28.4299 1117.18 28.4299C1118.95 28.4299 1120.41 28.5999 1121.54 28.9399C1122.67 29.2799 1123.56 29.7799 1124.2 30.4299C1124.84 31.0899 1125.29 31.8899 1125.53 32.8499C1125.77 33.8099 1125.9 34.8799 1125.9 36.0899V50.1399H1123.52V36.3399C1123.52 35.3799 1123.46 34.5499 1123.34 33.8199C1123.22 33.0999 1122.94 32.4899 1122.5 31.9999C1122.06 31.5099 1121.42 31.1399 1120.58 30.8899C1119.73 30.6399 1118.6 30.5199 1117.18 30.5199C1115.76 30.5199 1114.59 30.6499 1113.74 30.9099C1112.89 31.1699 1112.25 31.5399 1111.82 32.0399C1111.38 32.5299 1111.1 33.1399 1110.98 33.8599C1110.86 34.5799 1110.8 35.4099 1110.8 36.3399V50.1399H1108.42Z" fill="black"/>
<path d="M1131.8 23.7699L1134.18 23.3199V29.0999H1142.82L1142.37 31.1499H1134.18V42.9899C1134.18 43.9999 1134.25 44.8299 1134.39 45.4899C1134.53 46.1499 1134.78 46.6599 1135.15 47.0499C1135.52 47.4299 1136.02 47.6999 1136.67 47.8499C1137.31 47.9999 1138.15 48.0799 1139.19 48.0799H1142.34L1141.89 50.1699H1139.19C1137.8 50.1699 1136.63 50.0699 1135.69 49.8599C1134.75 49.6599 1133.99 49.2899 1133.42 48.7499C1132.85 48.2099 1132.44 47.4899 1132.19 46.5799C1131.95 45.6699 1131.82 44.4799 1131.82 43.0399V23.7899L1131.8 23.7699Z" fill="black"/>
<path d="M1147.04 50.14V36.2599C1147.04 34.8399 1147.2 33.67 1147.51 32.74C1147.82 31.81 1148.29 31.0699 1148.92 30.5099C1149.55 29.9499 1150.33 29.56 1151.25 29.34C1152.17 29.12 1153.26 29.0099 1154.49 29.0099H1157.07C1157.89 29.0099 1158.53 29.02 1158.99 29.05L1158.54 31.1799C1158.18 31.1499 1157.62 31.1299 1156.84 31.1199C1156.06 31.1099 1155.32 31.1 1154.61 31.1C1153.57 31.1 1152.72 31.1899 1152.05 31.3699C1151.38 31.5499 1150.85 31.84 1150.47 32.25C1150.09 32.66 1149.81 33.21 1149.65 33.91C1149.49 34.61 1149.41 35.49 1149.41 36.55V50.1499H1147.03L1147.04 50.14Z" fill="black"/>
<path d="M1177.76 47.81C1177.76 48.74 1177.59 49.36 1177.25 49.67C1176.91 49.98 1176.23 50.14 1175.22 50.14H1168.5C1165.69 50.14 1163.67 49.65 1162.44 48.67C1161.21 47.69 1160.6 46.09 1160.6 43.88V43.31C1160.6 41.02 1161.22 39.35 1162.46 38.31C1163.7 37.27 1165.72 36.75 1168.5 36.75C1170.38 36.75 1171.89 36.93 1173 37.28C1174.12 37.64 1174.94 38.13 1175.46 38.75V36.29C1175.46 35.31 1175.36 34.48 1175.17 33.81C1174.98 33.14 1174.64 32.61 1174.15 32.21C1173.66 31.81 1172.98 31.53 1172.1 31.35C1171.23 31.17 1170.12 31.08 1168.78 31.08C1167.77 31.08 1166.71 31.08 1165.59 31.1C1164.47 31.11 1163.46 31.15 1162.56 31.2L1163.01 29.07C1163.77 29.04 1164.68 29.02 1165.71 29.01C1166.75 29 1167.77 28.99 1168.78 28.99C1170.42 28.99 1171.8 29.12 1172.94 29.38C1174.07 29.64 1174.99 30.05 1175.7 30.61C1176.41 31.17 1176.93 31.89 1177.26 32.78C1177.59 33.67 1177.75 34.75 1177.75 36.04V47.8L1177.76 47.81ZM1162.89 43.84C1162.89 44.58 1162.98 45.21 1163.16 45.72C1163.34 46.24 1163.64 46.68 1164.06 47.03C1164.48 47.39 1165.06 47.64 1165.78 47.81C1166.5 47.97 1167.41 48.06 1168.5 48.06H1175.46V43.15C1175.46 42.28 1175.32 41.56 1175.03 41C1174.74 40.44 1174.33 40 1173.78 39.67C1173.23 39.34 1172.56 39.11 1171.75 38.97C1170.94 38.83 1170.02 38.77 1168.98 38.77H1168.45C1166.43 38.77 1165 39.1 1164.15 39.77C1163.3 40.44 1162.88 41.62 1162.88 43.31V43.84H1162.89Z" fill="black"/>
<path d="M1183.65 23.7699L1186.03 23.3199V29.0999H1194.67L1194.22 31.1499H1186.03V42.9899C1186.03 43.9999 1186.1 44.8299 1186.24 45.4899C1186.38 46.1499 1186.63 46.6599 1187 47.0499C1187.37 47.4299 1187.87 47.6999 1188.52 47.8499C1189.16 47.9999 1190 48.0799 1191.04 48.0799H1194.19L1193.74 50.1699H1191.04C1189.65 50.1699 1188.48 50.0699 1187.54 49.8599C1186.6 49.6599 1185.84 49.2899 1185.27 48.7499C1184.7 48.2099 1184.29 47.4899 1184.04 46.5799C1183.8 45.6699 1183.67 44.4799 1183.67 43.0399V23.7899L1183.65 23.7699Z" fill="black"/>
<path d="M1215.03 47.81C1215.03 48.74 1214.86 49.36 1214.52 49.67C1214.18 49.98 1213.5 50.14 1212.49 50.14H1205.77C1202.96 50.14 1200.94 49.65 1199.71 48.67C1198.48 47.69 1197.87 46.09 1197.87 43.88V43.31C1197.87 41.02 1198.49 39.35 1199.73 38.31C1200.97 37.27 1202.99 36.75 1205.77 36.75C1207.65 36.75 1209.16 36.93 1210.27 37.28C1211.39 37.64 1212.21 38.13 1212.73 38.75V36.29C1212.73 35.31 1212.63 34.48 1212.44 33.81C1212.25 33.14 1211.91 32.61 1211.42 32.21C1210.93 31.81 1210.25 31.53 1209.37 31.35C1208.5 31.17 1207.39 31.08 1206.05 31.08C1205.04 31.08 1203.98 31.08 1202.86 31.1C1201.74 31.11 1200.73 31.15 1199.83 31.2L1200.28 29.07C1201.04 29.04 1201.95 29.02 1202.98 29.01C1204.02 29 1205.04 28.99 1206.05 28.99C1207.69 28.99 1209.07 29.12 1210.21 29.38C1211.34 29.64 1212.26 30.05 1212.97 30.61C1213.68 31.17 1214.2 31.89 1214.53 32.78C1214.86 33.67 1215.02 34.75 1215.02 36.04V47.8L1215.03 47.81ZM1200.16 43.84C1200.16 44.58 1200.25 45.21 1200.43 45.72C1200.61 46.24 1200.91 46.68 1201.33 47.03C1201.75 47.39 1202.33 47.64 1203.05 47.81C1203.77 47.97 1204.68 48.06 1205.77 48.06H1212.73V43.15C1212.73 42.28 1212.59 41.56 1212.3 41C1212.01 40.44 1211.6 40 1211.05 39.67C1210.5 39.34 1209.83 39.11 1209.02 38.97C1208.21 38.83 1207.29 38.77 1206.25 38.77H1205.72C1203.7 38.77 1202.27 39.1 1201.42 39.77C1200.57 40.44 1200.15 41.62 1200.15 43.31V43.84H1200.16Z" fill="black"/>
<path d="M1229.28 50.14C1227.64 50.14 1226.24 49.9799 1225.08 49.6499C1223.92 49.3199 1222.97 48.78 1222.23 48.03C1221.49 47.28 1220.95 46.2799 1220.61 45.0399C1220.27 43.7999 1220.1 42.28 1220.1 40.47V37.81C1220.1 34.4 1220.84 31.98 1222.33 30.56C1223.82 29.14 1226.04 28.4299 1228.99 28.4299C1230.74 28.4299 1232.17 28.65 1233.29 29.11C1234.41 29.56 1235.28 30.18 1235.91 30.97V19.71H1238.28V47.81C1238.28 48.74 1238.12 49.36 1237.79 49.67C1237.46 49.98 1236.78 50.14 1235.74 50.14H1229.27H1229.28ZM1235.91 48.05V36.95C1235.91 35.56 1235.74 34.44 1235.4 33.59C1235.06 32.74 1234.58 32.1 1233.97 31.64C1233.35 31.19 1232.63 30.89 1231.8 30.74C1230.97 30.59 1230.07 30.5099 1229.12 30.5099C1227.95 30.5099 1226.94 30.62 1226.11 30.84C1225.28 31.06 1224.59 31.44 1224.06 31.99C1223.53 32.54 1223.14 33.28 1222.89 34.22C1222.64 35.16 1222.52 36.36 1222.52 37.8V40.46C1222.52 41.96 1222.63 43.2 1222.85 44.19C1223.07 45.17 1223.44 45.95 1223.98 46.52C1224.52 47.09 1225.22 47.49 1226.09 47.71C1226.96 47.93 1228.06 48.0399 1229.37 48.0399H1235.92L1235.91 48.05Z" fill="black"/>
<path d="M1252.63 28.4399C1254.24 28.4399 1255.63 28.5999 1256.81 28.9099C1257.98 29.2199 1258.95 29.7499 1259.7 30.4899C1260.45 31.2299 1261 32.2199 1261.36 33.4599C1261.71 34.6999 1261.89 36.2399 1261.89 38.0699V41.1799C1261.89 43.0099 1261.71 44.5399 1261.36 45.7699C1261 46.9999 1260.45 47.9899 1259.7 48.7399C1258.95 49.4899 1257.99 50.0199 1256.81 50.3399C1255.64 50.6499 1254.24 50.8099 1252.63 50.8099C1251.02 50.8099 1249.63 50.6499 1248.45 50.3399C1247.28 50.0299 1246.31 49.4899 1245.56 48.7399C1244.81 47.9899 1244.26 46.9999 1243.9 45.7699C1243.54 44.5399 1243.37 43.0099 1243.37 41.1799V38.0699C1243.37 36.2399 1243.55 34.7099 1243.9 33.4799C1244.25 32.2499 1244.81 31.2599 1245.56 30.5099C1246.31 29.7599 1247.27 29.2299 1248.45 28.9099C1249.62 28.5999 1251.02 28.4399 1252.63 28.4399ZM1259.47 38.0699C1259.47 36.5699 1259.35 35.3299 1259.1 34.3399C1258.86 33.3599 1258.46 32.5899 1257.91 32.0299C1257.36 31.4699 1256.65 31.0799 1255.78 30.8599C1254.91 30.6399 1253.86 30.5299 1252.63 30.5299C1251.4 30.5299 1250.32 30.6299 1249.46 30.8399C1248.6 31.0399 1247.9 31.4299 1247.35 31.9899C1246.8 32.5499 1246.41 33.3099 1246.16 34.2799C1245.91 35.2499 1245.79 36.5099 1245.79 38.0699V41.1799C1245.79 42.7099 1245.91 43.9599 1246.16 44.9299C1246.41 45.8999 1246.8 46.6599 1247.35 47.2199C1247.9 47.7799 1248.6 48.1699 1249.46 48.3899C1250.32 48.6099 1251.38 48.7199 1252.63 48.7199C1253.88 48.7199 1254.94 48.6199 1255.8 48.4099C1256.66 48.1999 1257.36 47.8199 1257.91 47.2599C1258.46 46.6999 1258.85 45.9399 1259.1 44.9699C1259.35 43.9999 1259.47 42.7399 1259.47 41.1799V38.0699Z" fill="black"/>
<path d="M682.05 0.339966H679.41V205.66H682.05V0.339966Z" fill="black"/>
</svg>
